<svg width="24" height="24" fill="none" xmlns="http://www.w3.org/2000/svg"><g clip-path="url('#clip0_1_233')" stroke="#FCFCFB" stroke-linecap="round" stroke-linejoin="round"><path d="M18.861 20.276c.267-.222.524-.456.769-.703M17.91 12a5.904 5.904 0 1 0-11.81.011 5.904 5.904 0 0 0 11.81-.01h0Z"/><path d="M22.75 12a10.75 10.75 0 1 0-19.849 5.706l-.667 4.06 4.06-.667a10.727 10.727 0 0 0 9.89.806"/><path d="M17.573 13.968c-.723 1.761.453 2.709 1.465 2.939 1.233.28 3.712-1.01 3.712-4.907"/></g><defs><clipPath id="clip0_1_233"><path fill="#fff" d="M0 0h24v24H0z"/></clipPath></defs></svg>